<?xml version="1.0" encoding="utf-8" standalone="no"?>
<!DOCTYPE svg PUBLIC "-//W3C//DTD SVG 1.1//EN" 
"http://www.w3.org/Graphics/SVG/1.1/DTD/svg11.dtd">
<svg width="1426px" height="795px" viewBox="0 0 1426 795"
xmlns="http://www.w3.org/2000/svg" version="1.1">
<rect x="0" y="0" width="1426" height="795" fill="none" stroke="rgb(192,192,192)" stroke-width="1"/>
<text x="1328" y="791" font-family="Times" font-size="12" xml:space="preserve"  fill="rgb(0,0,0)" textLength="63">P.biaculeatus</text>
<text x="1285" y="763" font-family="Times" font-size="12" xml:space="preserve"  fill="rgb(0,0,0)" textLength="52">A.ocellaris</text>
<text x="1353" y="735" font-family="Times" font-size="12" xml:space="preserve"  fill="rgb(0,0,0)" textLength="46">A.percula</text>
<text x="985" y="756" font-family="Times" font-size="12" xml:space="preserve"  fill="rgb(0,0,0)" textLength="27">0.029</text>
<text x="992" y="728" font-family="Times" font-size="12" xml:space="preserve"  fill="rgb(0,0,0)" textLength="27">0.035</text>
<text x="141" y="742" font-family="Times" font-size="12" xml:space="preserve"  fill="rgb(0,0,0)" textLength="33">1.00    </text>
<text x="260" y="784" font-family="Times" font-size="12" xml:space="preserve"  fill="rgb(0,0,0)" textLength="27">0.105</text>
<text x="222" y="742" font-family="Times" font-size="12" xml:space="preserve"  fill="rgb(0,0,0)" textLength="27">0.072</text>
<text x="1353" y="707" font-family="Times" font-size="12" xml:space="preserve"  fill="rgb(0,0,0)" textLength="65">A.latezonatus</text>
<text x="1104" y="679" font-family="Times" font-size="12" xml:space="preserve"  fill="rgb(0,0,0)" textLength="42">A.clarkii</text>
<text x="1125" y="651" font-family="Times" font-size="12" xml:space="preserve"  fill="rgb(0,0,0)" textLength="56">A.tricinctus</text>
<text x="1027" y="644" font-family="Times" font-size="12" xml:space="preserve"  fill="rgb(0,0,0)" textLength="27">0.009</text>
<text x="1176" y="623" font-family="Times" font-size="12" xml:space="preserve"  fill="rgb(0,0,0)" textLength="54">A.pacificus</text>
<text x="1182" y="595" font-family="Times" font-size="12" xml:space="preserve"  fill="rgb(0,0,0)" textLength="73">A.sandaracinos</text>
<text x="1137" y="566" font-family="Times" font-size="12" xml:space="preserve"  fill="rgb(0,0,0)" textLength="65">A.akallopisos</text>
<text x="1158" y="538" font-family="Times" font-size="12" xml:space="preserve"  fill="rgb(0,0,0)" textLength="66">A.perideraion</text>
<text x="1042" y="616" font-family="Times" font-size="12" xml:space="preserve"  fill="rgb(0,0,0)" textLength="33">1.00    </text>
<text x="1042" y="545" font-family="Times" font-size="12" xml:space="preserve"  fill="rgb(0,0,0)" textLength="33">1.00    </text>
<text x="1053" y="602" font-family="Times" font-size="12" xml:space="preserve"  fill="rgb(0,0,0)" textLength="27">0.009</text>
<text x="1169" y="510" font-family="Times" font-size="12" xml:space="preserve"  fill="rgb(0,0,0)" textLength="60">A.akindynos</text>
<text x="1179" y="482" font-family="Times" font-size="12" xml:space="preserve"  fill="rgb(0,0,0)" textLength="64">A.mccullochi</text>
<text x="1236" y="454" font-family="Times" font-size="12" xml:space="preserve"  fill="rgb(0,0,0)" textLength="59">A.polymnus</text>
<text x="1246" y="426" font-family="Times" font-size="12" xml:space="preserve"  fill="rgb(0,0,0)" textLength="38">A.sebae</text>
<text x="851" y="503" font-family="Times" font-size="12" xml:space="preserve"  fill="rgb(0,0,0)" textLength="33">1.00    </text>
<text x="851" y="433" font-family="Times" font-size="12" xml:space="preserve"  fill="rgb(0,0,0)" textLength="33">1.00    </text>
<text x="881" y="489" font-family="Times" font-size="12" xml:space="preserve"  fill="rgb(0,0,0)" textLength="27">0.027</text>
<text x="884" y="433" font-family="Times" font-size="12" xml:space="preserve"  fill="rgb(0,0,0)" textLength="27">0.030</text>
<text x="1239" y="398" font-family="Times" font-size="12" xml:space="preserve"  fill="rgb(0,0,0)" textLength="54">A.bicinctus</text>
<text x="1239" y="370" font-family="Times" font-size="12" xml:space="preserve"  fill="rgb(0,0,0)" textLength="62">A.omanensis</text>
<text x="1230" y="342" font-family="Times" font-size="12" xml:space="preserve"  fill="rgb(0,0,0)" textLength="72">A.chrysogaster</text>
<text x="1281" y="314" font-family="Times" font-size="12" xml:space="preserve"  fill="rgb(0,0,0)" textLength="79">A.fuscocaudatus</text>
<text x="1103" y="335" font-family="Times" font-size="12" xml:space="preserve"  fill="rgb(0,0,0)" textLength="27">0.012</text>
<text x="1108" y="307" font-family="Times" font-size="12" xml:space="preserve"  fill="rgb(0,0,0)" textLength="27">0.017</text>
<text x="906" y="391" font-family="Times" font-size="12" xml:space="preserve"  fill="rgb(0,0,0)" textLength="33">1.00    </text>
<text x="906" y="321" font-family="Times" font-size="12" xml:space="preserve"  fill="rgb(0,0,0)" textLength="33">1.00    </text>
<text x="938" y="377" font-family="Times" font-size="12" xml:space="preserve"  fill="rgb(0,0,0)" textLength="27">0.028</text>
<text x="925" y="321" font-family="Times" font-size="12" xml:space="preserve"  fill="rgb(0,0,0)" textLength="27">0.016</text>
<text x="1245" y="286" font-family="Times" font-size="12" xml:space="preserve"  fill="rgb(0,0,0)" textLength="42">A.allardi</text>
<text x="1245" y="257" font-family="Times" font-size="12" xml:space="preserve"  fill="rgb(0,0,0)" textLength="68">A.latifasciatus</text>
<text x="1293" y="229" font-family="Times" font-size="12" xml:space="preserve"  fill="rgb(0,0,0)" textLength="68">A.chagosensis</text>
<text x="1288" y="201" font-family="Times" font-size="12" xml:space="preserve"  fill="rgb(0,0,0)" textLength="50">A.nigripes</text>
<text x="1181" y="222" font-family="Times" font-size="12" xml:space="preserve"  fill="rgb(0,0,0)" textLength="27">0.011</text>
<text x="1180" y="194" font-family="Times" font-size="12" xml:space="preserve"  fill="rgb(0,0,0)" textLength="27">0.010</text>
<text x="898" y="278" font-family="Times" font-size="12" xml:space="preserve"  fill="rgb(0,0,0)" textLength="33">1.00    </text>
<text x="898" y="208" font-family="Times" font-size="12" xml:space="preserve"  fill="rgb(0,0,0)" textLength="33">1.00    </text>
<text x="931" y="264" font-family="Times" font-size="12" xml:space="preserve"  fill="rgb(0,0,0)" textLength="27">0.029</text>
<text x="925" y="208" font-family="Times" font-size="12" xml:space="preserve"  fill="rgb(0,0,0)" textLength="27">0.024</text>
<text x="880" y="363" font-family="Times" font-size="12" xml:space="preserve"  fill="rgb(0,0,0)" textLength="33">0.96    </text>
<text x="880" y="236" font-family="Times" font-size="12" xml:space="preserve"  fill="rgb(0,0,0)" textLength="33">0.12    </text>
<text x="1247" y="173" font-family="Times" font-size="12" xml:space="preserve"  fill="rgb(0,0,0)" textLength="72">A.chrysopterus</text>
<text x="1109" y="145" font-family="Times" font-size="12" xml:space="preserve"  fill="rgb(0,0,0)" textLength="62">A.ephippium</text>
<text x="1107" y="117" font-family="Times" font-size="12" xml:space="preserve"  fill="rgb(0,0,0)" textLength="50">A.frenatus</text>
<text x="1158" y="89" font-family="Times" font-size="12" xml:space="preserve"  fill="rgb(0,0,0)" textLength="63">A.melanopus</text>
<text x="1119" y="61" font-family="Times" font-size="12" xml:space="preserve"  fill="rgb(0,0,0)" textLength="45">A.barberi</text>
<text x="1126" y="33" font-family="Times" font-size="12" xml:space="preserve"  fill="rgb(0,0,0)" textLength="71">A.rubrocinctus</text>
<text x="1019" y="40" font-family="Times" font-size="12" xml:space="preserve"  fill="rgb(0,0,0)" textLength="33">1.00    </text>
<text x="1033" y="82" font-family="Times" font-size="12" xml:space="preserve"  fill="rgb(0,0,0)" textLength="27">0.012</text>
<text x="996" y="138" font-family="Times" font-size="12" xml:space="preserve"  fill="rgb(0,0,0)" textLength="33">1.00    </text>
<text x="996" y="61" font-family="Times" font-size="12" xml:space="preserve"  fill="rgb(0,0,0)" textLength="33">1.00    </text>
<text x="1007" y="124" font-family="Times" font-size="12" xml:space="preserve"  fill="rgb(0,0,0)" textLength="27">0.009</text>
<text x="856" y="92" font-family="Times" font-size="12" xml:space="preserve"  fill="rgb(0,0,0)" textLength="33">1.00    </text>
<text x="895" y="166" font-family="Times" font-size="12" xml:space="preserve"  fill="rgb(0,0,0)" textLength="27">0.034</text>
<text x="870" y="92" font-family="Times" font-size="12" xml:space="preserve"  fill="rgb(0,0,0)" textLength="27">0.012</text>
<text x="843" y="307" font-family="Times" font-size="12" xml:space="preserve"  fill="rgb(0,0,0)" textLength="33">1.00    </text>
<text x="843" y="129" font-family="Times" font-size="12" xml:space="preserve"  fill="rgb(0,0,0)" textLength="33">0.71    </text>
<text x="829" y="475" font-family="Times" font-size="12" xml:space="preserve"  fill="rgb(0,0,0)" textLength="33">0.33    </text>
<text x="829" y="211" font-family="Times" font-size="12" xml:space="preserve"  fill="rgb(0,0,0)" textLength="33">0.89    </text>
<text x="761" y="588" font-family="Times" font-size="12" xml:space="preserve"  fill="rgb(0,0,0)" textLength="33">1.00    </text>
<text x="761" y="336" font-family="Times" font-size="12" xml:space="preserve"  fill="rgb(0,0,0)" textLength="33">0.99    </text>
<text x="789" y="574" font-family="Times" font-size="12" xml:space="preserve"  fill="rgb(0,0,0)" textLength="27">0.025</text>
<text x="609" y="672" font-family="Times" font-size="12" xml:space="preserve"  fill="rgb(0,0,0)" textLength="33">1.00    </text>
<text x="609" y="455" font-family="Times" font-size="12" xml:space="preserve"  fill="rgb(0,0,0)" textLength="33">1.00    </text>
<text x="650" y="658" font-family="Times" font-size="12" xml:space="preserve"  fill="rgb(0,0,0)" textLength="27">0.036</text>
<text x="625" y="455" font-family="Times" font-size="12" xml:space="preserve"  fill="rgb(0,0,0)" textLength="27">0.013</text>
<text x="274" y="556" font-family="Times" font-size="12" xml:space="preserve"  fill="rgb(0,0,0)" textLength="33">1.00    </text>
<text x="382" y="700" font-family="Times" font-size="12" xml:space="preserve"  fill="rgb(0,0,0)" textLength="27">0.095</text>
<text x="308" y="556" font-family="Times" font-size="12" xml:space="preserve"  fill="rgb(0,0,0)" textLength="27">0.030</text>
<text x="12" y="703" font-family="Times" font-size="12" xml:space="preserve"  fill="rgb(0,0,0)" textLength="33">1.00    </text>
<text x="23" y="763" font-family="Times" font-size="12" xml:space="preserve"  fill="rgb(0,0,0)" textLength="27">0.012</text>
<text x="36" y="628" font-family="Times" font-size="12" xml:space="preserve"  fill="rgb(0,0,0)" textLength="27">0.023</text>
<line x1="952" y1="759" x2="1282" y2="759" style="stroke:rgb(0,0,0);stroke-width:1;stroke-linecap:butt" />
<line x1="952" y1="730" x2="1351" y2="730" style="stroke:rgb(0,0,0);stroke-width:1;stroke-linecap:butt" />
<line x1="952" y1="759" x2="952" y2="730" style="stroke:rgb(0,0,0);stroke-width:1;stroke-linecap:butt" />
<line x1="141" y1="787" x2="1325" y2="787" style="stroke:rgb(0,0,0);stroke-width:1;stroke-linecap:butt" />
<line x1="141" y1="744" x2="952" y2="744" style="stroke:rgb(0,0,0);stroke-width:1;stroke-linecap:butt" />
<line x1="141" y1="787" x2="141" y2="744" style="stroke:rgb(0,0,0);stroke-width:1;stroke-linecap:butt" />
<line x1="1017" y1="674" x2="1102" y2="674" style="stroke:rgb(0,0,0);stroke-width:1;stroke-linecap:butt" />
<line x1="1017" y1="646" x2="1122" y2="646" style="stroke:rgb(0,0,0);stroke-width:1;stroke-linecap:butt" />
<line x1="1017" y1="674" x2="1017" y2="646" style="stroke:rgb(0,0,0);stroke-width:1;stroke-linecap:butt" />
<line x1="1149" y1="618" x2="1173" y2="618" style="stroke:rgb(0,0,0);stroke-width:1;stroke-linecap:butt" />
<line x1="1149" y1="590" x2="1180" y2="590" style="stroke:rgb(0,0,0);stroke-width:1;stroke-linecap:butt" />
<line x1="1149" y1="618" x2="1149" y2="590" style="stroke:rgb(0,0,0);stroke-width:1;stroke-linecap:butt" />
<line x1="1123" y1="562" x2="1134" y2="562" style="stroke:rgb(0,0,0);stroke-width:1;stroke-linecap:butt" />
<line x1="1123" y1="534" x2="1156" y2="534" style="stroke:rgb(0,0,0);stroke-width:1;stroke-linecap:butt" />
<line x1="1123" y1="562" x2="1123" y2="534" style="stroke:rgb(0,0,0);stroke-width:1;stroke-linecap:butt" />
<line x1="1042" y1="604" x2="1149" y2="604" style="stroke:rgb(0,0,0);stroke-width:1;stroke-linecap:butt" />
<line x1="1042" y1="548" x2="1123" y2="548" style="stroke:rgb(0,0,0);stroke-width:1;stroke-linecap:butt" />
<line x1="1042" y1="604" x2="1042" y2="548" style="stroke:rgb(0,0,0);stroke-width:1;stroke-linecap:butt" />
<line x1="1155" y1="506" x2="1167" y2="506" style="stroke:rgb(0,0,0);stroke-width:1;stroke-linecap:butt" />
<line x1="1155" y1="478" x2="1177" y2="478" style="stroke:rgb(0,0,0);stroke-width:1;stroke-linecap:butt" />
<line x1="1155" y1="506" x2="1155" y2="478" style="stroke:rgb(0,0,0);stroke-width:1;stroke-linecap:butt" />
<line x1="1185" y1="449" x2="1233" y2="449" style="stroke:rgb(0,0,0);stroke-width:1;stroke-linecap:butt" />
<line x1="1185" y1="421" x2="1244" y2="421" style="stroke:rgb(0,0,0);stroke-width:1;stroke-linecap:butt" />
<line x1="1185" y1="449" x2="1185" y2="421" style="stroke:rgb(0,0,0);stroke-width:1;stroke-linecap:butt" />
<line x1="851" y1="492" x2="1155" y2="492" style="stroke:rgb(0,0,0);stroke-width:1;stroke-linecap:butt" />
<line x1="851" y1="435" x2="1185" y2="435" style="stroke:rgb(0,0,0);stroke-width:1;stroke-linecap:butt" />
<line x1="851" y1="492" x2="851" y2="435" style="stroke:rgb(0,0,0);stroke-width:1;stroke-linecap:butt" />
<line x1="1225" y1="393" x2="1237" y2="393" style="stroke:rgb(0,0,0);stroke-width:1;stroke-linecap:butt" />
<line x1="1225" y1="365" x2="1237" y2="365" style="stroke:rgb(0,0,0);stroke-width:1;stroke-linecap:butt" />
<line x1="1225" y1="393" x2="1225" y2="365" style="stroke:rgb(0,0,0);stroke-width:1;stroke-linecap:butt" />
<line x1="1089" y1="337" x2="1227" y2="337" style="stroke:rgb(0,0,0);stroke-width:1;stroke-linecap:butt" />
<line x1="1089" y1="309" x2="1279" y2="309" style="stroke:rgb(0,0,0);stroke-width:1;stroke-linecap:butt" />
<line x1="1089" y1="337" x2="1089" y2="309" style="stroke:rgb(0,0,0);stroke-width:1;stroke-linecap:butt" />
<line x1="906" y1="379" x2="1225" y2="379" style="stroke:rgb(0,0,0);stroke-width:1;stroke-linecap:butt" />
<line x1="906" y1="323" x2="1089" y2="323" style="stroke:rgb(0,0,0);stroke-width:1;stroke-linecap:butt" />
<line x1="906" y1="379" x2="906" y2="323" style="stroke:rgb(0,0,0);stroke-width:1;stroke-linecap:butt" />
<line x1="1226" y1="281" x2="1243" y2="281" style="stroke:rgb(0,0,0);stroke-width:1;stroke-linecap:butt" />
<line x1="1226" y1="253" x2="1243" y2="253" style="stroke:rgb(0,0,0);stroke-width:1;stroke-linecap:butt" />
<line x1="1226" y1="281" x2="1226" y2="253" style="stroke:rgb(0,0,0);stroke-width:1;stroke-linecap:butt" />
<line x1="1169" y1="225" x2="1291" y2="225" style="stroke:rgb(0,0,0);stroke-width:1;stroke-linecap:butt" />
<line x1="1169" y1="197" x2="1286" y2="197" style="stroke:rgb(0,0,0);stroke-width:1;stroke-linecap:butt" />
<line x1="1169" y1="225" x2="1169" y2="197" style="stroke:rgb(0,0,0);stroke-width:1;stroke-linecap:butt" />
<line x1="898" y1="267" x2="1226" y2="267" style="stroke:rgb(0,0,0);stroke-width:1;stroke-linecap:butt" />
<line x1="898" y1="211" x2="1169" y2="211" style="stroke:rgb(0,0,0);stroke-width:1;stroke-linecap:butt" />
<line x1="898" y1="267" x2="898" y2="211" style="stroke:rgb(0,0,0);stroke-width:1;stroke-linecap:butt" />
<line x1="880" y1="351" x2="906" y2="351" style="stroke:rgb(0,0,0);stroke-width:1;stroke-linecap:butt" />
<line x1="880" y1="239" x2="898" y2="239" style="stroke:rgb(0,0,0);stroke-width:1;stroke-linecap:butt" />
<line x1="880" y1="351" x2="880" y2="239" style="stroke:rgb(0,0,0);stroke-width:1;stroke-linecap:butt" />
<line x1="1101" y1="140" x2="1107" y2="140" style="stroke:rgb(0,0,0);stroke-width:1;stroke-linecap:butt" />
<line x1="1101" y1="112" x2="1105" y2="112" style="stroke:rgb(0,0,0);stroke-width:1;stroke-linecap:butt" />
<line x1="1101" y1="140" x2="1101" y2="112" style="stroke:rgb(0,0,0);stroke-width:1;stroke-linecap:butt" />
<line x1="1085" y1="56" x2="1117" y2="56" style="stroke:rgb(0,0,0);stroke-width:1;stroke-linecap:butt" />
<line x1="1085" y1="28" x2="1124" y2="28" style="stroke:rgb(0,0,0);stroke-width:1;stroke-linecap:butt" />
<line x1="1085" y1="56" x2="1085" y2="28" style="stroke:rgb(0,0,0);stroke-width:1;stroke-linecap:butt" />
<line x1="1019" y1="84" x2="1155" y2="84" style="stroke:rgb(0,0,0);stroke-width:1;stroke-linecap:butt" />
<line x1="1019" y1="42" x2="1085" y2="42" style="stroke:rgb(0,0,0);stroke-width:1;stroke-linecap:butt" />
<line x1="1019" y1="84" x2="1019" y2="42" style="stroke:rgb(0,0,0);stroke-width:1;stroke-linecap:butt" />
<line x1="996" y1="126" x2="1101" y2="126" style="stroke:rgb(0,0,0);stroke-width:1;stroke-linecap:butt" />
<line x1="996" y1="63" x2="1019" y2="63" style="stroke:rgb(0,0,0);stroke-width:1;stroke-linecap:butt" />
<line x1="996" y1="126" x2="996" y2="63" style="stroke:rgb(0,0,0);stroke-width:1;stroke-linecap:butt" />
<line x1="856" y1="168" x2="1244" y2="168" style="stroke:rgb(0,0,0);stroke-width:1;stroke-linecap:butt" />
<line x1="856" y1="95" x2="996" y2="95" style="stroke:rgb(0,0,0);stroke-width:1;stroke-linecap:butt" />
<line x1="856" y1="168" x2="856" y2="95" style="stroke:rgb(0,0,0);stroke-width:1;stroke-linecap:butt" />
<line x1="843" y1="295" x2="880" y2="295" style="stroke:rgb(0,0,0);stroke-width:1;stroke-linecap:butt" />
<line x1="843" y1="132" x2="856" y2="132" style="stroke:rgb(0,0,0);stroke-width:1;stroke-linecap:butt" />
<line x1="843" y1="295" x2="843" y2="132" style="stroke:rgb(0,0,0);stroke-width:1;stroke-linecap:butt" />
<line x1="829" y1="463" x2="851" y2="463" style="stroke:rgb(0,0,0);stroke-width:1;stroke-linecap:butt" />
<line x1="829" y1="213" x2="843" y2="213" style="stroke:rgb(0,0,0);stroke-width:1;stroke-linecap:butt" />
<line x1="829" y1="463" x2="829" y2="213" style="stroke:rgb(0,0,0);stroke-width:1;stroke-linecap:butt" />
<line x1="761" y1="576" x2="1042" y2="576" style="stroke:rgb(0,0,0);stroke-width:1;stroke-linecap:butt" />
<line x1="761" y1="338" x2="829" y2="338" style="stroke:rgb(0,0,0);stroke-width:1;stroke-linecap:butt" />
<line x1="761" y1="576" x2="761" y2="338" style="stroke:rgb(0,0,0);stroke-width:1;stroke-linecap:butt" />
<line x1="609" y1="660" x2="1017" y2="660" style="stroke:rgb(0,0,0);stroke-width:1;stroke-linecap:butt" />
<line x1="609" y1="457" x2="761" y2="457" style="stroke:rgb(0,0,0);stroke-width:1;stroke-linecap:butt" />
<line x1="609" y1="660" x2="609" y2="457" style="stroke:rgb(0,0,0);stroke-width:1;stroke-linecap:butt" />
<line x1="274" y1="702" x2="1351" y2="702" style="stroke:rgb(0,0,0);stroke-width:1;stroke-linecap:butt" />
<line x1="274" y1="559" x2="609" y2="559" style="stroke:rgb(0,0,0);stroke-width:1;stroke-linecap:butt" />
<line x1="274" y1="702" x2="274" y2="559" style="stroke:rgb(0,0,0);stroke-width:1;stroke-linecap:butt" />
<line x1="10" y1="766" x2="141" y2="766" style="stroke:rgb(0,0,0);stroke-width:1;stroke-linecap:butt" />
<line x1="10" y1="630" x2="274" y2="630" style="stroke:rgb(0,0,0);stroke-width:1;stroke-linecap:butt" />
<line x1="10" y1="766" x2="10" y2="630" style="stroke:rgb(0,0,0);stroke-width:1;stroke-linecap:butt" />
<text x="14" y="15" font-family="Times" font-size="12" xml:space="preserve"  fill="rgb(0,0,0)" textLength="264">PhyML ln(L)=-74922.0 18827 sites GTR 4 rate classes</text>
<line x1="1242" y1="13" x2="1355" y2="13" style="stroke:rgb(0,0,0);stroke-width:1;stroke-linecap:butt" />
<line x1="1242" y1="17" x2="1242" y2="9" style="stroke:rgb(0,0,0);stroke-width:1;stroke-linecap:butt" />
<line x1="1355" y1="17" x2="1355" y2="9" style="stroke:rgb(0,0,0);stroke-width:1;stroke-linecap:butt" />
<text x="1288" y="11" font-family="Times" font-size="12" xml:space="preserve"  fill="rgb(0,0,0)" textLength="21">0.01</text>
</svg>
